<?xml version="1.0" encoding="UTF-8"?>
<svg version="1.1" viewBox="0 0 180 180" xml:space="preserve" xmlns="http://www.w3.org/2000/svg"><g transform="matrix(.98895 0 0 .98895 .99448 .99448)"><rect x="33.113" y="33.113" width="113.77" height="113.77" fill="#0096fa" stroke="#0096fa" stroke-linecap="round" stroke-linejoin="round" stroke-width="68.236"/><path d="m68.307 148.81c1.6629-2.7011-1.8034-4.6025-4.0471-5.0927-2.8987 0.14224-2.3325-2.3586-2.2898-4.4601v-16.492c13.764 4.8042 28.585 7.5826 43.169 5.8224 15.559-1.8052 31.202-8.8953 40.522-21.862 5.6314-7.8569 8.5511-17.602 7.9227-27.264-0.54444-15.316-9.4757-29.855-22.656-37.597-14.661-9.0012-32.82-10.649-49.493-7.6135-21.5 3.9477-41.19 15.51-56.538 30.882-1.4382 1.6508 1.657 3.6315 2.1983 5.3816 1.8154 2.8665 3.6308 5.7331 5.4462 8.5996 3.361-0.38928 2.579-4.6567 1.8495-6.9767 0.27659-2.193 2.4179-4.0217 3.7233-5.8473 2.9392-3.4581 6.1709-6.7953 9.6591-9.6279v86.436c-2.0243 0.87055-5.5156 2.0875-4.7589 4.8404 0.40605 2.5461 3.157 1.3037 4.9682 1.5797h19.927c0.13251-0.23548 0.26502-0.47095 0.39754-0.70643zm22.148-27.983c-9.7074-0.49404-19.479-2.173-28.394-6.1691-0.03021-21.658-0.06041-43.316-0.09062-64.974 11.15-6.6766 24.391-10.138 37.385-9.1535 13.153 1.0618 26.041 8.6018 31.896 20.667 3.7186 6.8505 5.1242 14.779 4.7011 22.52-0.11799 9.5822-4.6092 18.845-11.16 25.716-8.3062 8.4892-20.627 11.769-32.235 11.447-0.70158 0.0379-1.4012-0.0293-2.1019-0.0542z" fill="#fff"/></g></svg>
