<?xml version="1.0" encoding="UTF-8"?>
<svg version="1.1" viewBox="0 0 180 180" xml:space="preserve" xmlns="http://www.w3.org/2000/svg"><g transform="matrix(.98895 0 0 .98895 .99448 .99448)"><circle cx="90" cy="90" r="91.006" fill="#ff4500" stroke-width="0"/><ellipse transform="matrix(1.0112 0 0 1.0112 -1.0056 -1.0056)" cx="90" cy="105.9" rx="52.437" ry="37.092" fill="#fff"/><circle transform="matrix(1.0112 0 0 1.0112 -1.0056 -1.0056)" cx="43.188" cy="90" r="13.312" fill="#fff"/><circle transform="matrix(-1.0112 0 0 1.0112 -1.0056 -1.0056)" cx="-43.188" cy="90" r="13.312" fill="#fff"/><circle transform="scale(-1,1)" cx="-137.45" cy="90" r="13.461" fill="#fff"/><circle cx="69.02" cy="99.498" r="9.2504" fill="#ff4500"/><circle cx="110.85" cy="99.498" r="9.2504" fill="#ff4500"/><path d="m69.02 123.05c5.8593 5.013 13.666 6.3067 21.167 6.3816 7.4487 0.0744 15.319-1.4519 20.974-6.3816" fill="none" stroke="#ff4500" stroke-linecap="round" stroke-width="4.0447"/><path d="m89.95 70.987 7.0005-33.516 31.416 6.4798v0" fill="none" stroke="#fff" stroke-linecap="round" stroke-linejoin="round" stroke-width="5.0559"/><ellipse cx="128.37" cy="43.951" rx="9.4292" ry="9.4333" fill="#fff" stroke-width="0"/></g></svg>
