<?xml version="1.0" encoding="UTF-8"?>
<svg version="1.1" viewBox="0 0 180 180" xml:space="preserve" xmlns="http://www.w3.org/2000/svg"><defs><clipPath id="a"><circle cx="90" cy="90" r="90" stroke-width="0"/></clipPath></defs><g transform="matrix(.98895 0 0 .98895 .99448 .99448)"><circle cx="90" cy="90" r="91.006" stroke-width="0"/><path transform="matrix(1.0112 0 0 1.0112 -1.0056 -1.0056)" d="m44.832 36.764c-1.6936 0-1.852 0.10454-2.4492 1.6055-1.5252 3.8328-2.1266 8.1459-1.9141 13.723 0.12326 3.2344 0.46194 6.1178 0.83984 7.1367l0.63477 1.709-2.1094 2.7832c-5.7557 7.5976-7.8975 16.521-6.7695 28.209 1.5466 16.025 7.7043 26.346 19.277 32.309 5.2573 2.7084 10.545 4.24 19.355 5.6035l1.5957 0.2461-1.6445 2.4434c-1.7275 2.566-2.8183 5.1451-3.3848 8.0059-0.32407 1.6366-0.45831 1.755-3.0879 2.6953-3.6931 1.3206-8.4791 1.6553-11.656 0.81641-4.7864-1.2638-8.2881-4.0358-11.605-9.1895-3.3853-5.2593-8.0955-8.7092-12.768-9.3496-2.7231-0.37324-5.0469 0.44136-5.0469 1.7695 0 1.0142 0.92241 1.9201 5.1309 5.0293 2.7524 2.0335 4.808 4.9263 7.7227 10.865 2.0354 4.1473 2.9958 5.6003 4.7285 7.1582 4.943 4.4442 11.907 6.3438 20.115 5.4863 2.4937-0.26048 4.8061-0.53254 5.1367-0.60352 0.4979-0.10689 0.62057 1.3773 0.7168 8.6406 0.12696 9.5827-0.08153 10.977-2.082 12.012-0.52232 0.2701-1.016 0.44491-1.5605 0.51758 8.4298 2.5432 17.187 3.8356 25.992 3.8359 8.7873-2e-4 17.527-1.2873 25.941-3.8203-0.45573-0.0657-0.88004-0.20881-1.3476-0.42187-2.2706-1.0346-2.3418-1.8043-2.3418-18.283 0-9.6722-0.17448-16.015-0.48242-17.459-0.63764-2.9895-2.1854-6.4374-3.8066-8.4844l-1.3086-1.6543 1.4082-0.22656c9.6842-1.5641 14.233-2.8726 19.619-5.6406 12.538-6.4442 18.855-17.932 19.547-35.559 0.43432-11.061-1.7873-18.716-7.459-25.703l-1.4824-1.8262 0.6875-2.7363c1.5273-6.0901 1.149-13.753-0.95508-19.357l-0.77735-2.0703-2.8516 0.06445c-4.6942 0.10716-10.636 2.3537-17.852 6.752l-4.0566 2.4746-4.0742-0.89062c-12.096-2.6404-23.132-2.7092-35.574-0.22265l-5.3984 1.0801-3.0898-2c-6.5046-4.2078-15.031-7.4727-19.514-7.4727z" clip-path="url(#a)" fill="#fff"/></g></svg>
