<?xml version="1.0" encoding="UTF-8"?>
<svg version="1.1" viewBox="0 0 120 100" xml:space="preserve" xmlns="http://www.w3.org/2000/svg"><path d="m19.227 99.744c0.10444-0.11239 0.49509-0.51589 0.86811-0.89666 0.37302-0.38077 0.6401-0.68164 0.59352-0.66861-2.8618 0.80082-6.7833 0.30216-9.4799-1.2055-4.602-2.5729-6.6836-5.4503-7.2266-9.9894-0.2468-2.0633 0.064651-4.3084 1.3188-9.5068 0.92359-3.8282 0.94083-4.8163 0.10309-5.9074-1.4802-1.9277-1.713-2.3643-1.9535-3.663-0.20311-1.0971 0.24027-2.4322 0.95575-2.878 3.0562-1.9043 7.138 1.175 7.5846 5.7216 0.15431 1.5712-0.03688 2.9145-0.93635 6.5785-0.87645 3.5703-1.0433 4.4838-1.1838 6.4791-0.24591 3.4942 0.62303 4.9519 4.2541 7.1368 1.4199 0.85437 2.1873 1.091 3.7302 1.1503 1.0025 0.03854 1.0355 0.02763 0.96303-0.3171-1.2228-5.8165-0.55634-12.983 1.8985-20.412 0.25526-0.77256 0.256-0.77626 0.17446-0.86811-3.45-3.8862-6.418-8.231-9.1896-13.453-0.43384-0.81737-1.1013-2.1427-1.1464-2.2761-0.04399-0.13033-0.05749-0.13763-0.25483-0.13763-2.3432 0-7.1308-2.5878-8.5035-4.5964-2.8968-4.2387 1.0179-12.182 6.7078-13.611 3.8976-0.97868 8.7287 0.33082 11.768 3.1898 0.39791 0.37432 0.3833 0.36724 0.36086 0.175-0.07936-0.67977 0.48815-0.93522 4.3748-1.9692 0.53569-0.14251 0.99488-0.2658 1.0204-0.27398 0.0316-0.01016 0.0153-0.15351-0.05102-0.44851-0.59878-2.6639-0.67035-5.5267-0.20692-8.2763 0.05495-0.32607 0.08692-0.60484 0.07101-0.6195-0.0159-0.01465-0.21948-0.09722-0.45238-0.18348-4.0124-1.4861-6.2473-2.9284-5.9942-3.8684 0.19015-0.70618 0.72891-0.71094 2.3524-0.02082 1.1203 0.47623 2.0522 0.84675 3.3826 1.3449 0.60275 0.2257 1.1406 0.42738 1.1953 0.44816 0.09629 0.03661 0.10417 0.02233 0.25333-0.45836 0.69795-2.2493 1.9713-4.9161 3.4787-7.2857 0.24198-0.38037 0.4492-0.71565 0.46048-0.74506 0.01129-0.02941-0.0465-0.53761-0.1284-1.1293-0.63442-4.5831-0.97814-8.5901-0.89326-10.413 0.06568-1.4109 0.12192-1.9255 0.28232-2.5832 0.71746-2.9417 3.2508-3.4265 7.2671-1.3906 1.6932 0.85826 2.3602 1.2841 8.2855 5.2896 0.78997 0.53402 1.4677 0.97094 1.506 0.97094 0.0689 0 0.37123-0.069883 3.3885-0.78321 3.3113-0.78284 3.688-0.86857 4.4524-1.0132 3.4494-0.65276 7.041-0.72588 10.411-0.21197 1.2508 0.19073 2.2956 0.42615 5.7981 1.3065 2.8161 0.70784 3.4639 0.858 3.5356 0.81963 0.04828-0.025842 1.3075-0.76196 2.7983-1.6358 1.4908-0.87386 3.1393-1.8393 3.6634-2.1454 9.1389-5.3384 11.123-4.4144 10.594 4.9339-0.11422 2.0182-0.26713 4.1466-0.45178 6.2885-0.09953 1.1545-0.12306 1.0114 0.2856 1.7362 1.6755 2.9718 2.7379 5.4045 3.6711 8.4058 0.04354 0.14006-0.03614 0.16289 1.6545-0.47401 3.9111-1.4734 4.8584-1.5741 4.9454-0.52548 0.0634 0.76497-0.86488 1.3111-5.1918 3.0542-0.74982 0.30208-0.81623 0.33723-0.79519 0.42104 0.70922 2.8258 0.55164 7.5997-0.33332 10.098-0.08531 0.24087-0.11182 0.22542 0.65508 0.38184 2.1884 0.44636 5.425 1.2854 5.8636 1.5201 0.80033 0.42816 0.56864 1.5944-0.32763 1.6492-0.2165 0.01323-0.38529-0.01827-0.94135-0.17566-1.6547-0.46838-5.6372-1.4246-5.9333-1.4246-0.01006 0-0.15738 0.2906-0.32738 0.64579-0.93851 1.9608-2.1152 3.6236-3.9178 5.5366-0.3789 0.40209-0.3789 0.40209-0.29587 0.50816 0.54324 0.694 0.60082 1.1834 0.46579 3.9596-0.04242 0.87214-0.04818 0.83884 0.13218 0.76378 1.2402-0.51606 4.3641-0.76559 6.404-0.51152 7.9316 0.98782 12.098 4.1853 11.999 9.2093-0.0129 0.65339-0.0129 0.65339 0.38856 0.88496 4.4722 2.5799 7.2266 7.1925 8.1468 13.643 0.36455 2.5554 0.41347 4.2265 0.28449 9.7186-0.11854 5.0475-0.17277 7.6272-0.21369 10.163-0.0402 2.4927-0.0863 2.7172-0.64851 3.1598-0.55004 0.43308-0.67364 0.43793-15.489 0.60811-1.083 0.01239-2.5599 0.03186-3.2819 0.0433-0.72201 0.01133-2.5514 0.03028-4.0653 0.04192-1.5139 0.01175-4.0579 0.03187-5.6533 0.04478-7.5798 0.0613-8.6723-0.03705-9.2567-0.83312-0.35071-0.47779-0.27132 1.2635-0.6157-13.503-0.29036-12.451 1.7087-18.343 7.5327-22.202 0.54616-0.36196 0.5611-0.37589 0.5611-0.52346 0-1.1624 0.74419-3.1674 1.345-3.6237 1.6714-1.2693 3.5576 0.40911 2.7649 2.4603-0.42481 1.0992-0.48016 1.7679-0.1932 2.3341 1.1138 2.1979 9.0847 3.4097 12.196 1.8542 2.216-1.1078 3.1861-4.4617 1.865-6.4472-1.9091-2.8692-10.194-4.3987-13.877-2.5619-0.44716 0.223-0.43071 0.20749-0.54105 0.51012-0.1808 0.49587-0.6562 0.93722-1.1861 1.1011-0.27233 0.08425-0.37039 0.08571-5.5366 0.08273-5.2594-0.0031-5.2594-0.0031-5.1149 0.21165 0.33788 0.50209 0.25829 0.89281-0.5519 2.7092-1.6072 3.6033-2.1641 3.8836-3.8701 1.948-0.85951-0.9752-1.8673-1.9575-3.3566-3.2719-1.0739-0.94776-1.263-1.1663-1.263-1.4594 0-0.129-0.05232-0.14504-0.42379-0.12997-0.30999 0.01258-0.30999 0.01258 0.23335 0.69012 1.5973 1.9918 4.3824 5.1936 7.0908 8.1518 1.4171 1.5477 1.4421 2.3257 0.09811 3.0451-0.80488 0.43077-2.2179 1.496-4.5 3.3924-3.5641 2.9617-3.6019 2.9593-5.6369-0.36067-3.706-6.046-6.313-11.103-7.3679-14.292-0.20311-0.61403-0.20311-0.61403-0.57579-0.61403-0.43276 0-0.43403 0.0022-0.90723 1.6249-0.59055 2.025-0.70751 2.4009-1.306 4.1978-2.3586 7.0819-4.1358 11.628-4.8089 12.301-0.78605 0.78605-1.3787 0.68347-2.864-0.49579-0.3341-0.26525-1.8461-1.4135-3.36-2.5517-3.216-2.4179-3.4584-2.6071-3.8595-3.0125-0.89529-0.90493-0.73166-1.9155 0.49276-3.0432 0.15148-0.13952 0.39762-0.40631 0.54697-0.59286 0.49723-0.62107 2.3104-2.7671 3.9361-4.6585 0.47314-0.55051 0.47314-0.55051 0.35597-0.64556-0.15846-0.12856 0.13734-0.38731-2.4886 2.1768-3.153 3.0788-3.7357 2.9019-6.0826-1.8473-0.98364-1.9905-0.82622-2.6023 0.7081-2.7523 0.9815-0.09595 3.0564-0.18744 4.3047-0.18982 1.5213-0.0029 1.3803 0.03801 1.2134-0.35192-0.07706-0.17997-0.07706-0.17997-6.5555-0.17997-4.5939 0-6.5438-0.01371-6.7029-0.04712-0.88279-0.18537-1.5314-0.85195-1.6279-1.673-0.02776-0.23617-0.02776-0.23617-2.174-2.3811-3.3728-3.3708-5.0466-5.2949-6.6916-7.6924-2.2234-3.2405-3.901-4.6545-6.3732-5.3716-2.5007-0.72544-4.7696-0.55087-6.2939 0.48426-1.9438 1.32-3.7342 5.1477-3.1324 6.6966 0.42133 1.0845 2.7442 2.5358 5.2438 3.2764 1.2937 0.38332 2.7414-0.32563 4.5581-2.2322 1.0614-1.1139 1.8755-1.3231 2.8066-0.72134 1.724 1.1143 0.63183 3.363-2.6812 5.5206-0.48041 0.31287-0.49383 0.15895 0.11734 1.346 2.6498 5.1467 5.7996 9.7957 9.1185 13.459 1.262 1.3928 1.3483 1.8006 0.74988 3.5435-3.3455 9.7439-3.4605 17.714-0.35428 24.54 0.18548 0.40759 0.35063 0.79824 0.36701 0.86811 0.01638 0.06987 0.08445 0.21279 0.15127 0.3176 0.12508 0.19619 0.77475 1.6103 0.75081 1.6343-0.0074 0.0074-0.38427 0.07887-0.83755 0.15896-0.87864 0.15518-1.3347 0.21755-3.7673 0.51521-0.85011 0.10407-1.6124 0.2003-1.6939 0.21394-0.14821 0.02477-0.14821 0.02477 0.04168-0.17954zm-0.11173-3.1686c0.44995-0.05897 1.044-0.20641 1.044-0.25909 0-0.01249-0.09359-0.2738-0.20797-0.58057-0.11438-0.30676-0.29821-0.84058-0.4085-1.1863-0.20053-0.62851-0.20053-0.62851-0.33195-0.60123-0.86125 0.17881-3.0614-0.02001-4.04-0.36499-1.18-0.416-3.4171-1.7661-4.506-2.7194-2.4886-2.1786-3.0903-4.2116-2.5519-8.6229 0.21404-1.754 0.27711-2.0659 1.0577-5.2298 0.93793-3.8017 1.12-5.2262 0.8524-6.6696-0.45592-2.4594-2.524-4.3741-4.1587-3.8505-0.46598 0.14927-0.49532 0.18548-0.54725 0.67533-0.080059 0.75525 0.24398 1.4812 1.2314 2.7588 1.6594 2.1471 1.7537 3.2243 0.6737 7.7-0.69704 2.8888-1.0377 4.5335-1.2455 6.0132-0.76493 5.4463 1.3829 9.2905 6.6662 11.931 1.683 0.84122 4.449 1.271 6.4725 1.0057zm74.876-0.91462c4.4621-0.04404 13.724-0.15877 14.927-0.18497 0.54734-0.01196 1.9098-0.03187 3.0278-0.04436 2.8614-0.03197 2.5487 0.05431 2.5776-0.71156 0.0133-0.35358 0.0449-1.8148 0.0701-3.2472 0.0252-1.4324 0.0827-4.186 0.12782-6.1191 0.0913-3.9073 0.10301-5.9515 0.0403-7.0296-0.3903-6.7191-2.3846-11.166-6.1793-13.779-0.39406-0.27133-0.3365-0.2928-0.61235 0.2284-2.0944 3.957-6.7764 5.3181-13.683 3.9777-3.09-0.59974-5.6167-1.9179-6.5706-3.4277-0.1466-0.23205-0.14171-0.23189-0.43396-0.01353-2.9341 2.1923-4.7366 5.886-5.3589 10.981-0.26512 2.171-0.28104 3.6907-0.11246 10.735 0.07163 2.9929 0.14064 5.9847 0.15336 6.6484 0.04165 2.1725-0.01892 1.9859 0.64926 2.0013 1.112 0.02573 8.1859 0.0163 11.377-0.01525zm-43.732-23.424c0.80174-1.9185 4.1587-11.408 4.1587-11.756 0-0.02121-0.18011 0.08188-0.40025 0.22906-1.3654 0.91293-3.1268 1.2862-4.7677 1.0103-0.15718-0.02642-1.1746 1.1177-4.1113 4.6233-1.7846 2.1303-1.769 1.8163-0.15107 3.0381 2.8464 2.1497 4.8784 3.6705 4.9042 3.6705 0.01469 0 0.18002-0.36683 0.36738-0.81518zm19.86-1.2313c1.6465-1.3718 3.3155-2.6869 3.9593-3.1198 0.19774-0.13297 0.30588 0.0237-0.92603-1.3416-3.4352-3.8072-6.0676-6.9515-7.3006-8.7203-0.23878-0.34254-4.6088-0.59503-4.5083-0.26048 0.4258 1.4178 2.2853 5.2636 4.253 8.796 1.0261 1.8422 3.2752 5.5917 3.354 5.5917 0.01859 0 0.54447-0.42546 1.1686-0.94546zm-27.622-9.8733c1.839-1.7601 1.6974-1.5963 1.3556-1.5685-0.16304 0.01326-0.68708 0.04233-1.1645 0.06459-1.2047 0.05618-2.8095 0.17404-2.8486 0.20922-0.0179 0.01609 0.06946 0.20898 0.19414 0.42865s0.38297 0.6757 0.57399 1.0134c0.53353 0.94329 0.62021 1.0488 0.76011 0.9252 0.06191-0.05469 0.57011-0.53737 1.1293-1.0726zm33.458-1.0982c0.26612-0.54536 0.48386-1.0098 0.48386-1.0321 0-0.02275-0.28317-0.05325-0.64579-0.06955-0.86297-0.03881-1.9371-0.10345-2.2761-0.13698-0.22659-0.02241 1.688 2.1752 1.9405 2.2273 0.0075 0.0016 0.23145-0.44337 0.49758-0.98873zm-24.63-0.83202c3.522-0.90772 4.3102-5.2829 1.3451-7.4664-2.8685-2.1123-7.1685 0.77331-6.3656 4.2718 0.1134 0.49413 0.11913 0.49477 0.30112 0.0336 0.91327-2.3144 2.441-3.894 3.3221-3.4347 0.47477 0.2475 0.49446 0.57154 0.07416 1.2202-0.72613 1.1207-1.4953 2.9915-1.5412 3.7485-0.03961 0.65353 0.20698 1.386 0.48408 1.438 0.08699 0.01632 0.23472 0.06778 0.3283 0.11435 0.43841 0.21821 1.364 0.25182 2.052 0.07452zm-7.432-5.513c0.43173-1.4505 0.86135-2.2326 1.7131-3.1188 0.16563-0.17232 0.30114-0.32001 0.30114-0.32819 0-0.0082-2.9161-0.01486-6.4803-0.01486-7.0175 0-6.6656-0.17613-6.4092 3.2078 0.02142 0.28257 10.792 0.5342 10.875 0.25408zm17.555 0.03562c0-0.0095-0.12863-0.11775-0.28584-0.24051-1.0346-0.80788-1.9168-2.0007-2.2415-3.0308-0.07128-0.22613-0.07128-0.22613-2.1008-0.22613-2.0295 0-2.0295 0-1.6941 0.35434 0.82684 0.8735 1.7064 2.4945 1.7064 3.1448 0 0.0086 1.0386 0.01567 2.3079 0.01567 1.2693 0 2.3079-0.0078 2.3079-0.01731zm25.197-0.09914c5.22e-4 -0.06405 0.0286-0.76436 0.06242-1.5562 0.0338-0.79188 0.06196-1.5303 0.06257-1.6409 0.0029-0.52356-15.158-0.26491-15.366 0.26214-0.44091 1.1187-1.3794 2.2934-2.3769 2.9752-0.09909 0.06772 0.40761 0.07201 8.7559 0.07411 8.8611 0.0022 8.8611 0.0022 8.862-0.11423zm-20.732-1.3295c1.5175-0.25903 2.8112-1.36 3.2769-2.7887 0.28355-0.86976 0.31654-2.0361 0.06391-2.2593-0.71332-0.63007-1.699-0.76394-3.1696-0.43045-0.94459 0.21421-1.2111 0.22036-1.3796 0.03182-0.52339-0.58532 0.84305-1.7788 2.4297-2.1222 0.39825-0.08619 0.40647-0.11212 0.09093-0.28684-2.3152-1.282-5.3185-0.02333-6.05 2.5354-0.856 2.9943 1.6801 5.8422 4.7378 5.3202zm-36.792-3.3552c-0.25338-0.90485 0.07601-1.7516 0.88488-2.2747 0.16398-0.10605 0.26089-0.19507 0.24352-0.22371-0.01587-0.02616-0.23196-0.35246-0.4802-0.72512-1.2493-1.8754-2.7424-4.8165-3.0275-5.9637-0.04448-0.17895-0.04466-0.17894-1.3231 0.07507-2.7041 0.53729-3.8648 0.69148-4.233 0.56235-0.1803-0.06322-0.1803-0.06322 0.07573 0.21046 0.63413 0.67789 1.3978 1.6565 2.158 2.7656 1.3221 1.9288 2.6747 3.5472 4.9513 5.9247 0.79958 0.83499 1.0497 0.71804 0.75035-0.35089zm29.558-2.4729c0.02636-0.01693 0.11779-0.24038 0.20317-0.49658 1.9951-5.9868 10.723-5.9661 12.665 0.03001 0.17751 0.54795-0.64273 0.48919 6.9065 0.49473 6.2719 0.0046 6.2719 0.0046 6.7967-0.40365 2.3496-1.828 4.1657-3.9058 5.3453-6.1156 0.23866-0.44708 0.23866-0.44708-0.7453-0.71457-3.1476-0.85567-4.1003-1.4578-3.5048-2.215 0.28862-0.36692 0.31232-0.36433 3.2248 0.35155 1.0509 0.2583 1.9246 0.45388 1.9415 0.43462 0.01695-0.01927 0.10067-0.27323 0.18604-0.56436 0.67588-2.3048 0.78926-4.7924 0.34282-7.5211-0.02846-0.17391-0.02846-0.17391-2.6252 0.68814-2.8578 0.94871-2.9384 0.96752-3.3484 0.78131-0.74794-0.33967-0.89813-1.3673-0.27942-1.9119 0.17712-0.15591 0.32355-0.21176 1.9526-0.7448 3.5035-1.1463 3.7389-1.2344 3.7059-1.3864-0.3939-1.8143-2.2031-5.8643-3.8898-8.7072-0.42091-0.70947-0.4578-0.94789-0.34216-2.2119 0.41725-4.5612 0.7393-10.805 0.56625-10.978-0.15025-0.15026-3.054 1.3223-5.8167 2.9497-6.2931 3.7071-6.4583 3.8-6.9226 3.8913-0.58322 0.11474-0.75559 0.081274-4.7651-0.9253-3.9268-0.98581-4.5272-1.1235-5.6533-1.2965-2.8393-0.43609-5.6199-0.42371-8.4923 0.037805-1.1031 0.17723-1.0713 0.17002-8.4253 1.9122-1.476 0.34967-1.7996 0.27818-3.2819-0.72515-0.45417-0.30742-1.3593-0.91886-2.0115-1.3588-0.65214-0.4399-1.5764-1.0648-2.0538-1.3886-3.3736-2.2882-5.0619-3.2636-6.4802-3.7442-0.55023-0.18643-0.52737-0.19933-0.57795 0.32613-0.17804 1.8497 0.11312 5.8326 0.77412 10.589 0.37362 2.6887 0.36274 2.8088-0.35142 3.8782-1.6014 2.3981-2.7632 4.7159-3.5004 6.9837-0.25423 0.78202-0.25174 0.74075-0.0485 0.80421 0.09316 0.02909 0.92113 0.28551 1.8399 0.56982 2.3358 0.72279 2.7455 1.0993 2.2509 2.0687-0.44458 0.87144-0.62103 0.86482-3.875-0.14542-0.60124-0.18666-0.8944-0.25982-0.91402-0.22808-0.03774 0.06107-0.1605 1.0282-0.21243 1.6736-0.0853 1.0602-0.04247 2.4887 0.10857 3.6206 0.05837 0.43739 0.30776 1.7801 0.33673 1.8129 0.0064 0.0072 0.73797-0.17047 1.6257-0.39488 1.9635-0.49632 2.1666-0.51164 2.6397-0.19917 0.74676 0.49319 0.55409 1.7655-0.30279 1.9994-0.40478 0.1105-2.7254 0.67688-2.9612 0.72272-0.37761 0.07341-0.36434 0.14003 0.3286 1.6489 0.85909 1.8706 2.9193 5.0328 3.9524 6.0664 0.07815 0.07818 23.566 0.11894 23.688 0.0411zm-4.2403-8.1652c-2.1814-0.33876-3.5654-2.4103-2.3441-3.5084 0.45684-0.41074 0.67296-0.36371 0.9668 0.21036 0.5512 1.0769 1.0075 1.3308 2.3936 1.3318 1.3808 0.0011 2.3002-0.3077 3.119-1.0475 0.21281-0.19226 0.21324-0.19112-0.14417-0.37711-1.6225-0.84434-2.0918-2.9923-0.78036-3.5724 1.6172-0.71535 4.1527-0.41248 4.6463 0.55501 0.38914 0.76277-0.59376 2.453-1.6215 2.7885-0.18731 0.06114-0.18932 0.07283-0.05713 0.33251 0.32512 0.6387 2.2007 1.368 3.3663 1.3089 1.1545-0.05853 1.7898-0.36012 2.128-1.0103 0.75662-1.4543 1.9729-0.09656 1.2437 1.3883-1.0576 2.1534-4.9262 2.1162-7.2353-0.06959-0.35684-0.33777-0.35684-0.33777-0.43128-0.22416-0.94475 1.4419-3.1163 2.2253-5.2498 1.894zm-13.14-0.69474c-0.65131-0.2759-0.78017-0.90818-0.38865-1.907 1.1242-2.868 1.9369-3.89 2.751-3.4595 0.54698 0.28925 0.49037 0.61-0.6519 3.6937-0.58549 1.5806-0.99125 1.9775-1.7104 1.6728zm34.307-0.27165c-0.81378-0.2589-0.89204-0.98627-0.27049-2.514 0.92122-2.2642 1.3531-2.8472 2.1138-2.853 0.71615-0.0055 0.87785 0.59424 0.47431 1.7594-1.1865 3.4257-1.4755 3.8756-2.3176 3.6076zm2.8564-0.06674c-0.7119-0.2146-0.73903-1.0873-0.07077-2.2758 0.9376-1.6675 2.4891-1.6374 1.7944 0.03483-0.11039 0.26568-0.2729 0.66845-0.36114 0.89505-0.47236 1.213-0.78353 1.5204-1.3624 1.3459zm-39.31-1.1681c-0.6789-0.35309-0.6447-0.59705 0.40937-2.9202 0.65532-1.4443 1.8738-1.3899 1.4724 0.06577-0.09924 0.35994-0.6485 2.0926-0.74478 2.3494-0.17437 0.46509-0.73503 0.71415-1.137 0.50508zm31.082-4.8795c-1.9856-0.6866-2.5351-4.5922-1.1036-7.8447 1.306-2.9676 3.9621-2.0211 4.6994 1.6748 0.67973 3.4074-1.3774 6.9371-3.5958 6.17zm-22.039-0.05784c-2.1723-0.25536-2.9484-4.9852-1.3578-8.2752 0.84276-1.7432 2.5931-1.8609 3.5547-0.23913 2.0648 3.4824 0.67924 8.8524-2.1969 8.5143zm27.202-11.468c-0.4782-0.19345-0.44057-0.79134 0.0727-1.1551 0.91174-0.64613 1.7728-0.58668 1.7728 0.12241 0 0.46749-1.3606 1.2288-1.8455 1.0327zm-31.14-0.13687c-0.81097-0.40142-1.237-1.3557-0.72367-1.6211 0.57043-0.29498 1.7555 0.62499 1.6347 1.269-0.06839 0.36454-0.52742 0.54196-0.91099 0.35211zm26.731-1.7682c-0.50869-0.31017-0.51079-1.8406-0.0029-2.1032 0.47499-0.24563 0.74642 0.16089 0.78101 1.1697 0.02941 0.85758-0.28468 1.2344-0.77814 0.93349zm-22.647-0.17836c-0.42645-0.33544-0.35303-1.981 0.10033-2.2488 0.54426-0.3215 0.78349 0.0066 0.75807 1.0396-0.02635 1.0714-0.12561 1.3009-0.56255 1.3009-0.11964 0-0.2179-0.03049-0.29585-0.09181zm-12.25-0.67301c-0.77511-0.39377-0.69648-1.1648 0.19152-1.8778 0.36883-0.29616 0.41401-0.06032-0.28252-1.4748-1.1717-2.3794-2.1386-5.1186-1.9473-5.5166 0.25144-0.52315 0.61542-0.28181 1.2774 0.847 0.80275 1.3688 1.6614 2.7809 2.0856 3.4301 0.25877 0.39594 0.5816 0.91998 0.71741 1.1645 0.1358 0.24455 0.33862 0.59827 0.4507 0.78605 0.51173 0.8573 0.40339 1.135-0.78953 2.024-0.98983 0.73761-1.2682 0.83853-1.7033 0.61748zm48.562-0.65787c-0.28026-0.07463-1.771-0.80039-2.0164-0.98171-0.73349-0.54183-0.48235-1.3256 1.4577-4.5492 1.8526-3.0784 2.1711-3.4362 2.7458-3.0857 0.38767 0.23639 0.3259 0.43133-0.75236 2.3745-1.1992 2.1612-2.0703 3.8731-2.0021 3.9345 0.02094 0.01888 0.20673 0.07573 0.41288 0.12634 0.99621 0.24456 1.5064 0.67995 1.5087 1.2875 0.0026 0.68605-0.61163 1.0914-1.3542 0.8937zm23.629 31.153c-0.40632-0.06039-0.53867-0.2006-0.88184-0.93434-1.5972-3.4151-1.4681-9.4327 0.24845-11.579 2.0792-2.5994 5.7885-1.562 6.6697 1.8652 0.0775 0.30148 0.0775 0.30148 0.50915 0.18472 2.0178-0.54583 3.0822-0.23496 4.4166 1.29 1.2318 1.4076 0.90013 4.7302-0.58966 5.9078-0.11023 0.08713-0.26064 0.22701-0.33424 0.31084-0.39892 0.45434-2.3918 1.4192-4.2579 2.0614-1.808 0.62224-4.6492 1.0613-5.7803 0.89317zm-99.261-28.615c-3.7615-0.25507-6.021-1.2422-7.7473-3.3848-2.6532-3.2928-0.9705-7.6311 3.2435-8.3622 0.81967-0.1422 2.4734-0.15027 2.829-0.013805 0.041045 0.015753 0.059232-0.13489 0.078299-0.64864 0.13216-3.5606 3.0619-6.6304 6.0364-6.3252 2.2526 0.23116 3.6724 1.1241 5.2225 3.2846 1.4982 2.0881 1.6057 6.4753 0.23875 9.7398-0.72182 1.7238-2.284 5.1294-2.4346 5.3075-0.18625 0.22025-0.4237 0.25017-2.2367 0.28183-0.86176 0.01504-1.8965 0.05466-2.2994 0.08802-0.64067 0.05305-2.3505 0.07226-2.9304 0.03293z" stroke-width="1.0587"/></svg>
