<?xml version="1.0" encoding="UTF-8"?>
<svg version="1.1" viewBox="0 0 180 180" xml:space="preserve" xmlns="http://www.w3.org/2000/svg"><g transform="matrix(.98895 0 0 .98895 .99448 .99448)"><path d="m70.9 152.25c-27.07-0.73106-43.065-1.7963-51.231-3.4119-6.8682-1.3588-13.364-6.8033-16.122-13.512-5.3294-12.964-6.1765-61.536-1.4923-85.57 2.0125-10.326 8.8657-17.036 19.161-18.761 28.771-4.8194 124.72-4.4249 140.28 0.57675 6.5124 2.0939 11.865 6.9648 14.382 13.089 4.7211 11.484 6.2499 50.892 2.9612 76.33-1.565 12.106-2.7297 15.751-6.5094 20.377-6.0489 7.4023-12.955 8.9795-46.001 10.505-6.0533 0.27953-48.38 0.56767-55.428 0.37733z" fill="#f00" stroke-width="1.0088"/><path transform="matrix(.97647 0 0 .97647 17.148 3.5839)" d="m88.469 89.178-24.616 14.212v-28.424z" fill="#fff" stroke="#fff" stroke-width="16.179"/></g></svg>
