<?xml version="1.0" encoding="UTF-8" standalone="no"?>
<!-- Created with Inkscape (http://www.inkscape.org/) -->

<svg
   width="180"
   height="180"
   viewBox="0 0 180 180"
   version="1.1"
   id="svg1"
   xml:space="preserve"
   sodipodi:docname="github.svg"
   inkscape:version="1.4.2 (f4327f4, 2025-05-13)"
   xmlns:inkscape="http://www.inkscape.org/namespaces/inkscape"
   xmlns:sodipodi="http://sodipodi.sourceforge.net/DTD/sodipodi-0.dtd"
   xmlns="http://www.w3.org/2000/svg"
   xmlns:svg="http://www.w3.org/2000/svg"><sodipodi:namedview
     id="namedview1"
     pagecolor="#b5b5b5"
     bordercolor="#999999"
     borderopacity="1"
     inkscape:showpageshadow="2"
     inkscape:pageopacity="0"
     inkscape:pagecheckerboard="true"
     inkscape:deskcolor="#282828"
     inkscape:document-units="px"
     inkscape:zoom="8"
     inkscape:cx="54.0625"
     inkscape:cy="94.875"
     inkscape:window-width="3840"
     inkscape:window-height="2054"
     inkscape:window-x="-11"
     inkscape:window-y="220"
     inkscape:window-maximized="1"
     inkscape:current-layer="layer1" /><defs
     id="defs1"><clipPath
       clipPathUnits="userSpaceOnUse"
       id="clipPath2"><circle
         style="display:inline;opacity:1;fill:#000000;fill-opacity:1;stroke:#ffffff;stroke-width:0;stroke-linecap:square;stroke-dasharray:none"
         id="circle2"
         r="90"
         cy="90"
         cx="90" /></clipPath></defs><g
     inkscape:label="Layer 1"
     inkscape:groupmode="layer"
     id="layer1"
     style="opacity:1;stroke-width:1;stroke-dasharray:none"
     transform="matrix(0.98895028,0,0,0.98895028,0.99447514,0.99447531)"><circle
       style="display:inline;opacity:1;fill:#000000;fill-opacity:1;stroke:#ffffff;stroke-width:0;stroke-linecap:square;stroke-dasharray:none"
       id="path1"
       r="91.005585"
       cy="90"
       cx="90" /><path
       id="path13"
       clip-path="url(#clipPath2)"
       style="display:inline;fill:#ffffff;fill-opacity:1"
       d="m 44.83203,36.763671 c -1.693628,0 -1.851966,0.104543 -2.449218,1.605469 -1.525165,3.832824 -2.126591,8.145914 -1.914063,13.722656 0.123262,3.23437 0.461944,6.11785 0.839844,7.136719 l 0.634766,1.708984 -2.109375,2.783203 c -5.755691,7.597638 -7.897485,16.521337 -6.769532,28.208984 1.546563,16.025214 7.704291,26.346484 19.277344,32.308594 5.257331,2.70844 10.545166,4.23995 19.355468,5.60351 l 1.595703,0.2461 -1.644531,2.44336 c -1.72746,2.56598 -2.818267,5.14507 -3.384765,8.00586 -0.324072,1.63655 -0.458309,1.75502 -3.087891,2.69531 -3.693146,1.3206 -8.479149,1.65531 -11.65625,0.81641 -4.786355,-1.26381 -8.288141,-4.03582 -11.605468,-9.18946 -3.385343,-5.2593 -8.095546,-8.70924 -12.767578,-9.34961 -2.723098,-0.37324 -5.046875,0.44136 -5.046875,1.76953 0,1.01423 0.922408,1.92007 5.130859,5.0293 2.752441,2.03352 4.808011,4.92629 7.722656,10.86524 2.035375,4.14733 2.995776,5.60032 4.728516,7.1582 4.943013,4.4442 11.906504,6.34376 20.115234,5.48633 2.493724,-0.26048 4.806115,-0.53254 5.136718,-0.60352 0.497902,-0.10689 0.62057,1.37731 0.716797,8.64063 0.126955,9.58268 -0.08153,10.97748 -2.082031,12.01198 -0.522321,0.2701 -1.01597,0.44491 -1.560547,0.51758 8.429773,2.54322 17.187129,3.83563 25.992187,3.83594 8.787267,-2e-4 17.527132,-1.2873 25.941402,-3.82032 -0.45573,-0.0657 -0.88004,-0.20881 -1.34765,-0.42187 -2.27065,-1.03457 -2.3418,-1.80434 -2.3418,-18.28347 0,-9.6722 -0.17448,-16.01519 -0.48242,-17.45898 -0.63764,-2.98954 -2.1854,-6.43739 -3.80664,-8.48438 l -1.3086,-1.6543 1.40821,-0.22656 c 9.68425,-1.56414 14.23338,-2.87261 19.61914,-5.64062 12.53847,-6.44416 18.85479,-17.93248 19.54687,-35.558597 0.43432,-11.061154 -1.78729,-18.715639 -7.45898,-25.703124 l -1.48242,-1.826172 0.6875,-2.736328 c 1.52734,-6.090127 1.149,-13.7532 -0.95508,-19.357422 l -0.77735,-2.070312 -2.85156,0.06445 c -4.69421,0.107157 -10.6357,2.3537 -17.85156,6.751953 l -4.05664,2.474609 -4.07422,-0.890625 C 96.31171,42.738511 85.276117,42.669652 72.833983,45.156249 l -5.398437,1.080078 -3.089844,-2 C 57.841114,40.028531 49.315163,36.763671 44.83203,36.763671 Z"
       transform="matrix(1.0111732,0,0,1.0111732,-1.0055866,-1.0055868)"
       sodipodi:nodetypes="ssscccsscccssssssssssssscccssscccssccccccccccccs" /></g></svg>
