<?xml version="1.0" encoding="UTF-8" standalone="no"?>
<!-- Created with Inkscape (http://www.inkscape.org/) -->

<svg
   width="120"
   height="100"
   viewBox="0 0 120 100"
   version="1.1"
   id="svg1"
   xml:space="preserve"
   inkscape:version="1.4.2 (f4327f4, 2025-05-13)"
   sodipodi:docname="manekineko.svg"
   xmlns:inkscape="http://www.inkscape.org/namespaces/inkscape"
   xmlns:sodipodi="http://sodipodi.sourceforge.net/DTD/sodipodi-0.dtd"
   xmlns="http://www.w3.org/2000/svg"
   xmlns:svg="http://www.w3.org/2000/svg"><sodipodi:namedview
     id="namedview1"
     pagecolor="#8f8f8f"
     bordercolor="#999999"
     borderopacity="1"
     inkscape:showpageshadow="false"
     inkscape:pageopacity="0"
     inkscape:pagecheckerboard="true"
     inkscape:deskcolor="#2f2f2f"
     inkscape:document-units="px"
     inkscape:zoom="14.966667"
     inkscape:cx="50.011135"
     inkscape:cy="44.766146"
     inkscape:window-width="3840"
     inkscape:window-height="2054"
     inkscape:window-x="-11"
     inkscape:window-y="220"
     inkscape:window-maximized="1"
     inkscape:current-layer="layer1" /><defs
     id="defs1" /><g
     inkscape:label="Layer 1"
     inkscape:groupmode="layer"
     id="layer1"><path
       style="fill:#000000;fill-opacity:1;stroke-width:1.05867"
       d="m 19.227225,99.744365 c 0.104437,-0.112388 0.495089,-0.515889 0.868109,-0.896661 0.37302,-0.380771 0.640105,-0.681645 0.593523,-0.668613 -2.861758,0.80082 -6.783315,0.302155 -9.479945,-1.205485 C 6.6068717,94.400679 4.5252799,91.523269 3.9823259,86.984203 3.7355209,84.920927 4.0469768,82.675778 5.301151,77.477353 6.224738,73.649181 6.2419822,72.661009 5.4042389,71.569979 3.9240271,69.642233 3.6912093,69.205671 3.4507701,67.906983 3.247661,66.809928 3.6910384,65.474832 4.4065243,65.02902 c 3.0561727,-1.904269 7.1380337,1.174979 7.5845557,5.721589 0.154308,1.57122 -0.03688,2.914477 -0.936346,6.578531 -0.876451,3.570306 -1.043348,4.483775 -1.1837719,6.479056 -0.245913,3.49419 0.6230289,4.951939 4.2541459,7.136807 1.419922,0.854367 2.187292,1.091011 3.730175,1.150307 1.002502,0.03854 1.035512,0.02763 0.963032,-0.317103 -1.22285,-5.816532 -0.556337,-12.982782 1.898503,-20.412411 0.255263,-0.772559 0.256005,-0.776256 0.174461,-0.868108 -3.450045,-3.88617 -6.418038,-8.231015 -9.189595,-13.452652 -0.433845,-0.817366 -1.101344,-2.142692 -1.146376,-2.276139 -0.04399,-0.130334 -0.05749,-0.137627 -0.254833,-0.137627 -2.3432121,0 -7.1308221,-2.587837 -8.5034691,-4.596365 -2.8967805,-4.238716 1.0179335,-12.182112 6.7077668,-13.610814 3.8976253,-0.978684 8.7286943,0.33082 11.7677603,3.189755 0.397909,0.374324 0.383298,0.367239 0.360855,0.174997 -0.07936,-0.679771 0.488152,-0.935216 4.37484,-1.969181 0.535687,-0.142508 0.99488,-0.265799 1.020431,-0.273981 0.0316,-0.01016 0.0153,-0.153512 -0.05102,-0.44851 -0.598777,-2.663876 -0.670353,-5.526674 -0.206925,-8.276257 0.05495,-0.32607 0.08692,-0.604845 0.07101,-0.619499 -0.0159,-0.01465 -0.219476,-0.09722 -0.452383,-0.183482 -4.012401,-1.486073 -6.247327,-2.928379 -5.994217,-3.868358 0.190154,-0.706176 0.728911,-0.710944 2.352395,-0.02082 1.120318,0.476234 2.0522,0.846753 3.38263,1.344946 0.602748,0.225705 1.140628,0.427375 1.195287,0.448157 0.09629,0.03661 0.104173,0.02233 0.253333,-0.458359 0.697947,-2.249292 1.971265,-4.916081 3.478703,-7.285662 0.241979,-0.380372 0.449196,-0.715651 0.460482,-0.745064 0.01129,-0.02941 -0.0465,-0.537609 -0.128402,-1.129326 -0.634416,-4.583101 -0.978137,-8.590073 -0.893259,-10.4133101 0.06568,-1.410932 0.121921,-1.925478 0.282321,-2.583153 0.717458,-2.94171588 3.250792,-3.42650277 7.267062,-1.3906479 1.693155,0.8582643 2.360212,1.2841224 8.28552,5.289587 0.789973,0.5340173 1.467668,0.9709396 1.505986,0.9709396 0.0689,0 0.371231,-0.069883 3.38854,-0.7832079 3.311335,-0.7828393 3.688046,-0.8685661 4.452391,-1.0132089 3.449409,-0.6527575 7.040982,-0.7258798 10.411326,-0.2119657 1.250835,0.1907288 2.295595,0.4261472 5.798064,1.3064942 2.816137,0.707837 3.463898,0.8580039 3.535592,0.8196346 0.04828,-0.025842 1.307525,-0.7619551 2.798331,-1.6358199 1.490806,-0.8738595 3.139317,-1.8392949 3.663358,-2.1454081 9.138874,-5.33836839 11.12272,-4.41441161 10.593648,4.9338891 -0.114222,2.018216 -0.267133,4.146631 -0.451784,6.288495 -0.09953,1.154457 -0.123061,1.011378 0.285596,1.736218 1.675452,2.97177 2.73791,5.404539 3.671059,8.405834 0.04354,0.140055 -0.03614,0.162886 1.65448,-0.474006 3.911117,-1.473397 4.858427,-1.574054 4.945387,-0.525478 0.0634,0.764971 -0.86488,1.311079 -5.191847,3.05425 -0.749825,0.302076 -0.816226,0.337234 -0.795192,0.421035 0.709222,2.825766 0.551644,7.599666 -0.333325,10.098252 -0.08531,0.240867 -0.111818,0.225416 0.655082,0.381839 2.188403,0.446365 5.424962,1.285399 5.863602,1.520062 0.80033,0.428158 0.56864,1.594442 -0.32763,1.649208 -0.2165,0.01323 -0.38529,-0.01827 -0.94135,-0.175664 -1.654708,-0.468375 -5.637238,-1.424556 -5.933328,-1.424556 -0.01006,0 -0.15738,0.290605 -0.327385,0.645789 -0.938508,1.960777 -2.115152,3.62359 -3.917845,5.536636 -0.378897,0.40209 -0.378897,0.40209 -0.295866,0.508161 0.543244,0.693997 0.60082,1.183446 0.46579,3.959627 -0.04242,0.872142 -0.04818,0.838836 0.132178,0.763783 1.240153,-0.516063 4.364066,-0.765586 6.404023,-0.511522 7.931553,0.987821 12.097613,4.185342 11.998763,9.20926 -0.0129,0.653393 -0.0129,0.653393 0.38856,0.884955 4.47218,2.57989 7.22662,7.192546 8.14684,13.64297 0.36455,2.555402 0.41347,4.226513 0.28449,9.718584 -0.11854,5.047534 -0.17277,7.627183 -0.21369,10.163225 -0.0402,2.4927 -0.0863,2.71717 -0.64851,3.159831 -0.55004,0.433081 -0.67364,0.437929 -15.48887,0.608111 -1.08302,0.01239 -2.55986,0.03186 -3.281873,0.0433 -0.722012,0.01133 -2.551393,0.03028 -4.06529,0.04192 -1.513897,0.01175 -4.057879,0.03187 -5.653294,0.04478 -7.579797,0.0613 -8.672315,-0.03705 -9.256684,-0.83312 -0.350713,-0.477788 -0.271317,1.263501 -0.615699,-13.503305 -0.290362,-12.450501 1.708713,-18.342723 7.532724,-22.2025 0.546161,-0.36196 0.561095,-0.375892 0.561095,-0.523459 0,-1.16239 0.74419,-3.167421 1.344979,-3.623698 1.67135,-1.269333 3.557641,0.409114 2.764909,2.460252 -0.424807,1.099158 -0.480155,1.767855 -0.193196,2.334141 1.113765,2.19791 9.08474,3.409726 12.196249,1.854178 2.21595,-1.107821 3.18613,-4.461723 1.86501,-6.44725 -1.90909,-2.869186 -10.194253,-4.398689 -13.877414,-2.561875 -0.447164,0.223004 -0.430706,0.207488 -0.541053,0.510123 -0.180802,0.495867 -0.656196,0.937216 -1.186077,1.101135 -0.272332,0.08425 -0.370392,0.08571 -5.536638,0.08273 -5.259396,-0.0031 -5.259396,-0.0031 -5.114926,0.211654 0.337884,0.502094 0.258291,0.892814 -0.551896,2.709247 -1.607185,3.603298 -2.164119,3.883618 -3.870143,1.947952 -0.85951,-0.975201 -1.867265,-1.95753 -3.356594,-3.271896 -1.073921,-0.94776 -1.26304,-1.166282 -1.26304,-1.459409 0,-0.128996 -0.05232,-0.145042 -0.423787,-0.129972 -0.309994,0.01258 -0.309994,0.01258 0.233353,0.690124 1.597289,1.991805 4.382352,5.193591 7.090775,8.151753 1.417076,1.547744 1.442141,2.325726 0.09811,3.045056 -0.80488,0.43077 -2.217888,1.495987 -4.499988,3.392378 -3.564113,2.961724 -3.601912,2.959305 -5.636929,-0.360672 -3.705951,-6.045983 -6.312976,-11.103043 -7.367856,-14.292035 -0.203113,-0.614028 -0.203113,-0.614028 -0.575794,-0.614028 -0.43276,0 -0.434026,0.0022 -0.907231,1.624869 -0.590549,2.024968 -0.707512,2.400926 -1.305967,4.197811 -2.358636,7.081904 -4.135776,11.627744 -4.808855,12.300824 -0.786052,0.786052 -1.37866,0.683467 -2.864042,-0.495792 -0.334105,-0.26525 -1.846109,-1.413524 -3.360006,-2.551719 -3.21599,-2.417884 -3.458426,-2.607116 -3.859497,-3.012504 -0.89529,-0.904927 -0.731662,-1.915472 0.49276,-3.043225 0.151483,-0.139524 0.397618,-0.406309 0.546968,-0.592855 0.497228,-0.621069 2.310428,-2.767092 3.93606,-4.658547 0.47314,-0.550508 0.47314,-0.550508 0.355973,-0.645564 -0.158461,-0.128558 0.137344,-0.387306 -2.488586,2.176832 -3.153023,3.078829 -3.73567,2.901879 -6.082584,-1.847275 -0.983639,-1.990465 -0.826224,-2.60232 0.708099,-2.752316 0.981498,-0.09595 3.056354,-0.187445 4.304707,-0.18982 1.521333,-0.0029 1.380314,0.03801 1.213365,-0.351919 -0.07706,-0.179974 -0.07706,-0.179974 -6.555534,-0.179974 -4.593939,0 -6.543753,-0.01371 -6.702881,-0.04712 -0.882788,-0.185372 -1.531407,-0.851952 -1.627903,-1.672981 -0.02776,-0.236172 -0.02776,-0.236172 -2.174011,-2.38111 -3.372827,-3.370757 -5.046608,-5.294865 -6.691583,-7.692364 -2.223399,-3.240532 -3.900953,-4.654453 -6.373189,-5.371623 -2.500741,-0.725438 -4.7696352,-0.550867 -6.2939316,0.484263 -1.9437689,1.319988 -3.734219,5.147671 -3.1324314,6.696617 0.4213288,1.08446 2.7441624,2.535806 5.2437864,3.276407 1.2937446,0.383318 2.7413836,-0.325633 4.5581096,-2.232241 1.061374,-1.113884 1.875484,-1.323127 2.806562,-0.721341 1.723973,1.114257 0.631833,3.363009 -2.681156,5.520584 -0.480412,0.312868 -0.49383,0.158952 0.117341,1.346023 2.64981,5.146706 5.79956,9.795672 9.118503,13.458723 1.261975,1.392816 1.348277,1.800638 0.749878,3.543506 -3.345486,9.743892 -3.460548,17.713876 -0.354284,24.539953 0.185475,0.407588 0.350631,0.798237 0.367011,0.868109 0.01638,0.06987 0.08445,0.212793 0.151266,0.317601 0.125081,0.196193 0.774753,1.610342 0.750808,1.634289 -0.0074,0.0074 -0.384271,0.07887 -0.837554,0.158959 -0.878642,0.15518 -1.334692,0.217546 -3.767251,0.515212 -0.850112,0.104067 -1.612353,0.2003 -1.693871,0.213936 -0.148214,0.02477 -0.148214,0.02477 0.04168,-0.17954 z m -0.111727,-3.16865 c 0.449948,-0.05897 1.044025,-0.206409 1.044025,-0.259088 0,-0.01249 -0.09359,-0.273804 -0.207974,-0.580574 -0.114385,-0.30676 -0.298212,-0.840584 -0.408504,-1.18626 -0.200531,-0.628511 -0.200531,-0.628511 -0.331948,-0.601229 -0.861247,0.178809 -3.061368,-0.02001 -4.040014,-0.364987 -1.179979,-0.416004 -3.417085,-1.766093 -4.50597,-2.719351 C 8.1765226,88.685623 7.5748618,86.652648 8.1131633,82.241365 8.327203,80.487352 8.3902721,80.175502 9.1708618,77.011539 10.108793,73.209822 10.290844,71.785356 10.023257,70.341922 9.5673335,67.882553 7.499294,65.967803 5.8645403,66.491461 5.3985574,66.640729 5.3692163,66.676936 5.31729,67.166793 c -0.080059,0.755247 0.2439757,1.481223 1.2313663,2.75879 1.6594136,2.147085 1.7536595,3.224257 0.6737035,7.699984 -0.6970369,2.888773 -1.037719,4.533514 -1.2455473,6.013242 -0.7649304,5.446266 1.382898,9.290468 6.6661585,11.93116 1.683032,0.841218 4.448976,1.271006 6.472527,1.005746 z m 74.87562,-0.914616 c 4.462053,-0.04404 13.724362,-0.158769 14.927232,-0.184971 0.54734,-0.01196 1.90984,-0.03187 3.0278,-0.04436 2.86144,-0.03197 2.54869,0.05431 2.57758,-0.711563 0.0133,-0.353585 0.0449,-1.814824 0.0701,-3.247204 0.0252,-1.432379 0.0827,-4.185978 0.12782,-6.119108 0.0913,-3.907294 0.10301,-5.951473 0.0403,-7.029564 -0.3903,-6.719141 -2.38455,-11.16605 -6.1793,-13.779013 -0.39406,-0.271334 -0.3365,-0.292801 -0.61235,0.228401 -2.09441,3.957015 -6.77644,5.318137 -13.682785,3.977692 -3.089997,-0.599736 -5.616701,-1.917855 -6.570578,-3.427711 -0.146599,-0.232047 -0.141714,-0.231894 -0.433964,-0.01353 -2.934133,2.192313 -4.73661,5.885969 -5.358881,10.981477 -0.265121,2.170963 -0.281042,3.690748 -0.11246,10.734906 0.07163,2.992858 0.140639,5.984658 0.153362,6.648443 0.04165,2.172549 -0.01892,1.985884 0.649263,2.00133 1.112039,0.02573 8.185931,0.0163 11.376831,-0.01525 z M 50.259364,72.23694 c 0.801742,-1.918522 4.158696,-11.408223 4.158696,-11.756126 0,-0.02121 -0.180111,0.08188 -0.400246,0.229061 -1.365406,0.912927 -3.126772,1.286182 -4.76766,1.010326 -0.157175,-0.02642 -1.17456,1.117666 -4.111291,4.623302 -1.784602,2.130316 -1.768985,1.816261 -0.151069,3.038128 2.846448,2.149667 4.878433,3.670485 4.904187,3.670485 0.01469,0 0.180021,-0.366829 0.367383,-0.815176 z m 19.8596,-1.231298 c 1.646511,-1.371761 3.315513,-2.686884 3.959329,-3.119832 0.197738,-0.132973 0.305883,0.0237 -0.926033,-1.341615 -3.435175,-3.807167 -6.067627,-6.951533 -7.300624,-8.720325 -0.238783,-0.342545 -4.608751,-0.59503 -4.508274,-0.260475 0.425799,1.417759 2.28532,5.263617 4.252956,8.795959 1.026146,1.842158 3.275214,5.591746 3.354027,5.591746 0.01859,0 0.544467,-0.425456 1.168619,-0.945458 z M 42.496978,61.132293 c 1.838964,-1.760097 1.697361,-1.596254 1.355563,-1.568454 -0.163035,0.01326 -0.687076,0.04233 -1.164536,0.06459 -1.204747,0.05618 -2.809475,0.174043 -2.84861,0.209219 -0.0179,0.01609 0.06946,0.208983 0.194139,0.428646 0.124679,0.219663 0.382973,0.6757 0.573987,1.013415 0.533534,0.943294 0.620212,1.048797 0.760109,0.925202 0.06191,-0.05469 0.570113,-0.537372 1.129348,-1.072622 z m 33.457544,-1.098216 c 0.266123,-0.545357 0.483859,-1.00979 0.483859,-1.032075 0,-0.02275 -0.283167,-0.05325 -0.645788,-0.06955 -0.862968,-0.03881 -1.937129,-0.103453 -2.276139,-0.136979 -0.226591,-0.02241 1.688041,2.175242 1.940493,2.227337 0.0075,0.0016 0.231452,-0.44337 0.497575,-0.988726 z M 51.324133,59.202062 c 3.522009,-0.90772 4.310219,-5.282873 1.345111,-7.466371 -2.868484,-2.112343 -7.168466,0.773308 -6.365591,4.27185 0.113397,0.49413 0.119134,0.49477 0.301115,0.0336 0.913274,-2.314402 2.441042,-3.893972 3.322055,-3.434694 0.474767,0.247498 0.494458,0.571539 0.07416,1.220237 -0.726133,1.120717 -1.495296,2.991484 -1.541179,3.748475 -0.03961,0.653526 0.206975,1.38605 0.484079,1.438035 0.08699,0.01632 0.234725,0.06778 0.3283,0.114354 0.438411,0.218211 1.363995,0.251823 2.051956,0.07452 z m -7.432005,-5.513007 c 0.431733,-1.450482 0.861347,-2.232625 1.713087,-3.118792 0.16563,-0.172325 0.301144,-0.320009 0.301144,-0.328188 0,-0.0082 -2.91612,-0.01486 -6.480267,-0.01486 -7.017529,0 -6.665615,-0.176131 -6.40919,3.207767 0.02142,0.282573 10.791847,0.534205 10.875226,0.254081 z m 17.555496,0.03562 c 0,-0.0095 -0.128628,-0.117749 -0.28584,-0.240512 -1.034593,-0.807878 -1.916789,-2.000734 -2.241497,-3.030828 -0.07128,-0.226133 -0.07128,-0.226133 -2.100804,-0.226133 -2.029522,0 -2.029522,0 -1.694103,0.354345 0.826837,0.873498 1.706446,2.494509 1.706446,3.144771 0,0.0086 1.038555,0.01567 2.307899,0.01567 1.269345,0 2.307899,-0.0078 2.307899,-0.01731 z m 25.19728,-0.09914 c 5.22e-4,-0.06405 0.0286,-0.76436 0.06242,-1.556244 0.0338,-0.791885 0.06196,-1.530307 0.06257,-1.640938 0.0029,-0.523557 -15.158246,-0.264909 -15.365968,0.262143 -0.440912,1.118716 -1.379355,2.293359 -2.376914,2.975164 -0.09909,0.06772 0.407608,0.07201 8.755885,0.07411 8.86106,0.0022 8.86106,0.0022 8.862011,-0.114232 z m -20.731566,-1.32952 c 1.517456,-0.259031 2.811168,-1.35999 3.27694,-2.788704 0.28355,-0.869763 0.316542,-2.036147 0.06391,-2.259297 -0.713322,-0.630074 -1.699033,-0.763939 -3.169589,-0.430452 -0.944594,0.214212 -1.211059,0.220358 -1.379648,0.03182 -0.523389,-0.58532 0.843048,-1.778812 2.429701,-2.122183 0.39825,-0.08619 0.406471,-0.112118 0.09093,-0.28684 -2.315183,-1.281968 -5.318524,-0.02333 -6.05002,2.535427 -0.856004,2.994289 1.680102,5.842177 4.737778,5.320229 z m -36.791824,-3.35519 c -0.253384,-0.904851 0.07601,-1.751619 0.884884,-2.274726 0.163976,-0.106046 0.260886,-0.195072 0.243518,-0.223709 -0.01587,-0.02616 -0.231958,-0.352463 -0.480201,-0.725115 -1.24932,-1.87542 -2.742399,-4.816523 -3.027545,-5.963728 -0.04448,-0.17895 -0.04466,-0.178941 -1.323064,0.07507 -2.704074,0.537288 -3.864756,0.691483 -4.233001,0.562348 -0.180302,-0.06322 -0.180302,-0.06322 0.07573,0.210462 0.634132,0.677889 1.397772,1.65653 2.158014,2.765597 1.32213,1.928769 2.674684,3.547217 4.951325,5.924689 0.799579,0.834992 1.049677,0.718035 0.750348,-0.350894 z m 29.557987,-2.472887 c 0.02636,-0.01693 0.11779,-0.240384 0.203168,-0.496582 1.995103,-5.986807 10.722826,-5.966124 12.665302,0.03001 0.17751,0.547949 -0.642731,0.489193 6.906481,0.494726 6.271921,0.0046 6.271921,0.0046 6.796656,-0.403653 2.349601,-1.828004 4.165698,-3.90581 5.345306,-6.115597 0.238659,-0.447083 0.238659,-0.447083 -0.745299,-0.714574 -3.147556,-0.85567 -4.100339,-1.457821 -3.504759,-2.214978 0.288616,-0.366917 0.312316,-0.364333 3.224831,0.351547 1.050888,0.258302 1.924571,0.453879 1.941518,0.434615 0.01695,-0.01927 0.100669,-0.273227 0.186041,-0.564361 0.675879,-2.304794 0.789265,-4.792354 0.342815,-7.521074 -0.02846,-0.17391 -0.02846,-0.17391 -2.62517,0.688135 -2.857785,0.948713 -2.938385,0.96752 -3.348402,0.781314 -0.747944,-0.339672 -0.898129,-1.367312 -0.279419,-1.911922 0.177125,-0.155912 0.323547,-0.211762 1.952638,-0.744805 3.503476,-1.146346 3.738872,-1.23441 3.705874,-1.386406 C 91.05318,25.360003 89.243944,21.310069 87.55729,18.467128 87.136376,17.757655 87.099495,17.519239 87.215127,16.255205 87.632379,11.694017 87.954431,5.4502971 87.781374,5.2772269 87.631127,5.12697 84.727387,6.5994858 81.964635,8.2269527 75.671562,11.934044 75.50631,12.026935 75.042032,12.118276 74.458809,12.233018 74.286446,12.19955 70.276926,11.192977 66.350097,10.207165 65.749678,10.069472 64.623632,9.8965186 61.78437,9.4604252 59.003764,9.4728042 56.131381,9.9343237 55.028323,10.111558 55.060121,10.104341 47.706097,11.846513 46.230074,12.196184 45.906504,12.124689 44.424222,11.121359 43.970053,10.81394 43.064891,10.202497 42.412751,9.762597 41.760611,9.3226966 40.836392,8.6978234 40.358932,8.3739881 36.985286,6.085829 35.296999,5.1103626 33.87869,4.6298062 33.328464,4.4433766 33.351319,4.4304799 33.300742,4.9559356 c -0.178043,1.8497218 0.11312,5.8325714 0.774119,10.5892644 0.373624,2.688672 0.362743,2.808752 -0.351421,3.878215 -1.60142,2.398133 -2.763158,4.71594 -3.500407,6.983732 -0.25423,0.782016 -0.251741,0.740746 -0.0485,0.80421 0.09316,0.02909 0.921126,0.285512 1.839918,0.569824 2.335788,0.722788 2.745454,1.099287 2.250908,2.068677 -0.444576,0.87144 -0.621031,0.864818 -3.874954,-0.145416 -0.601239,-0.186665 -0.894405,-0.25982 -0.914021,-0.228081 -0.03774,0.06107 -0.160504,1.028239 -0.212428,1.673624 -0.0853,1.060247 -0.04247,2.488707 0.108566,3.620649 0.05837,0.437388 0.307765,1.780107 0.336732,1.812868 0.0064,0.0072 0.737967,-0.170473 1.625736,-0.394878 1.963495,-0.496321 2.166573,-0.511643 2.639697,-0.199174 0.746765,0.493192 0.554089,1.765454 -0.302792,1.999371 -0.404776,0.1105 -2.725387,0.676878 -2.961165,0.722716 -0.377613,0.07341 -0.364338,0.140031 0.328596,1.648871 0.859089,1.870636 2.919318,5.032788 3.952446,6.066431 0.07815,0.07818 23.566452,0.118939 23.687728,0.0411 z M 54.439234,38.30272 c -2.181356,-0.338762 -3.565427,-2.410317 -2.34408,-3.508413 0.456838,-0.410736 0.67296,-0.363711 0.966802,0.210362 0.551203,1.076875 1.007485,1.330752 2.3936,1.331812 1.380824,0.0011 2.300203,-0.307698 3.119029,-1.047459 0.212806,-0.192257 0.213242,-0.191116 -0.144168,-0.377107 -1.622548,-0.844344 -2.091752,-2.992318 -0.780356,-3.572403 1.6172,-0.715354 4.152691,-0.412482 4.646269,0.555013 0.389138,0.762772 -0.593759,2.453027 -1.621534,2.788498 -0.187309,0.06114 -0.189318,0.07283 -0.05713,0.332514 0.325124,0.638701 2.200749,1.368 3.36629,1.308912 1.154522,-0.05853 1.78976,-0.360117 2.128028,-1.010311 0.756625,-1.45433 1.972925,-0.09656 1.24369,1.388341 -1.057553,2.153443 -4.926178,2.116238 -7.235348,-0.06959 -0.356836,-0.337773 -0.356836,-0.337773 -0.43128,-0.224156 -0.944752,1.441873 -3.11632,2.225312 -5.249816,1.893984 z M 41.299136,37.607977 C 40.647822,37.332073 40.518965,36.6998 40.910489,35.70097 c 1.124194,-2.867974 1.936889,-3.889989 2.750957,-3.459499 0.546975,0.289247 0.490367,0.609995 -0.651897,3.6937 -0.585489,1.580616 -0.991248,1.977451 -1.710413,1.672806 z m 34.306697,-0.271654 c -0.81378,-0.258904 -0.89204,-0.986272 -0.270487,-2.513976 0.921216,-2.264238 1.353092,-2.847153 2.113791,-2.853045 0.716152,-0.0055 0.877848,0.594239 0.47431,1.75938 -1.186466,3.425694 -1.475473,3.875569 -2.317614,3.607641 z m 2.856358,-0.06674 c -0.711896,-0.214597 -0.739034,-1.087261 -0.07077,-2.275772 0.9376,-1.667533 2.489148,-1.637411 1.794352,0.03483 -0.110387,0.265681 -0.272898,0.668452 -0.361138,0.895049 -0.47236,1.213012 -0.783528,1.520398 -1.362443,1.345888 z M 39.15205,36.101484 c -0.678902,-0.35309 -0.644703,-0.597049 0.409371,-2.920242 0.655324,-1.444346 1.873762,-1.389928 1.472425,0.06577 -0.09924,0.359937 -0.648501,2.092573 -0.744785,2.349394 -0.174366,0.465092 -0.735028,0.714151 -1.137011,0.505083 z m 31.081977,-4.879457 c -1.985596,-0.686602 -2.535051,-4.59222 -1.103623,-7.844733 1.306048,-2.967623 3.962139,-2.021057 4.699415,1.674757 0.679731,3.407355 -1.37736,6.937092 -3.595792,6.169976 z m -22.038836,-0.05784 c -2.172313,-0.255355 -2.948402,-4.98519 -1.357818,-8.275156 0.842765,-1.743174 2.593084,-1.860923 3.554672,-0.239133 2.064794,3.48243 0.679242,8.852375 -2.196854,8.514289 z M 75.397432,19.696504 c -0.4782,-0.193452 -0.440569,-0.791343 0.0727,-1.155088 0.911737,-0.646133 1.77284,-0.586675 1.77284,0.122413 0,0.467488 -1.36064,1.228837 -1.84554,1.032675 z M 44.257226,19.55963 c -0.810971,-0.401415 -1.236961,-1.355688 -0.723672,-1.62112 0.570428,-0.294979 1.755476,0.624993 1.634658,1.269012 -0.06839,0.36454 -0.527424,0.541965 -0.910986,0.352108 z m 26.731309,-1.768187 c -0.508694,-0.31017 -0.510786,-1.840555 -0.0029,-2.103205 0.474987,-0.245626 0.74642,0.160894 0.781012,1.169713 0.02941,0.857583 -0.284678,1.234373 -0.778137,0.933492 z m -22.646657,-0.17836 c -0.426446,-0.335443 -0.353026,-1.980974 0.10033,-2.248781 0.544258,-0.321501 0.783486,0.0066 0.758072,1.039637 -0.02635,1.0714 -0.125613,1.300947 -0.562554,1.300947 -0.119642,0 -0.2179,-0.03049 -0.295848,-0.09181 z M 36.091541,16.940071 c -0.775111,-0.393772 -0.696479,-1.164751 0.191515,-1.877782 0.368833,-0.296162 0.414013,-0.06032 -0.282518,-1.474762 -1.171713,-2.379393 -2.138613,-5.1185614 -1.947304,-5.5165946 0.251443,-0.5231511 0.615419,-0.2818135 1.277413,0.8469989 0.802748,1.3688207 1.661353,2.7809057 2.085633,3.4300887 0.258771,0.395942 0.581605,0.919983 0.717407,1.164536 0.135803,0.244553 0.33862,0.598274 0.450703,0.786048 0.511729,0.8573 0.403387,1.135035 -0.789533,2.023984 -0.989833,0.73761 -1.268209,0.838527 -1.703316,0.617483 z m 48.562114,-0.657873 c -0.280259,-0.07463 -1.77098,-0.800392 -2.016439,-0.981712 -0.733491,-0.54183 -0.482348,-1.325608 1.457677,-4.549178 1.85265,-3.0783844 2.171059,-3.4362063 2.745841,-3.0857252 0.387669,0.236386 0.325902,0.4313293 -0.752355,2.3745382 -1.199211,2.161191 -2.070315,3.873069 -2.002128,3.934546 0.02094,0.01888 0.206732,0.07573 0.412877,0.126337 0.99621,0.244564 1.506392,0.679948 1.508694,1.287499 0.0026,0.686051 -0.611632,1.091416 -1.354167,0.893695 z m 23.629495,31.152834 c -0.40632,-0.06039 -0.53867,-0.200603 -0.88184,-0.934342 -1.59724,-3.415137 -1.46813,-9.432658 0.24845,-11.578741 2.07915,-2.599384 5.78851,-1.562048 6.66972,1.865212 0.0775,0.301482 0.0775,0.301482 0.50915,0.18472 2.01781,-0.545834 3.0822,-0.234958 4.41662,1.289955 1.23176,1.4076 0.90013,4.730171 -0.58966,5.907781 -0.11023,0.08713 -0.26064,0.227011 -0.33424,0.310838 -0.39892,0.454344 -2.3918,1.41918 -4.25786,2.061405 -1.80801,0.622245 -4.6492,1.061263 -5.78034,0.893172 z M 9.022322,18.82053 C 5.2608394,18.565458 3.001365,17.578302 1.2750139,15.435761 -1.3781949,12.142913 0.30451683,7.8046114 4.5184996,7.0735324 5.3381648,6.9313288 6.9918967,6.9232596 7.3475274,7.0597274 7.388572,7.0754804 7.4067599,6.9248328 7.4258266,6.4110829 7.5579908,2.8505208 10.487681,-0.21931515 13.46222,0.08593096 c 2.252608,0.23116043 3.672449,1.12413634 5.222508,3.28457224 1.498162,2.0881034 1.605707,6.4753401 0.238752,9.7397578 -0.72182,1.723775 -2.284031,5.129407 -2.434617,5.307479 -0.186251,0.220252 -0.423696,0.250171 -2.236719,0.281829 -0.861757,0.01504 -1.896501,0.05466 -2.299431,0.08802 -0.640666,0.05305 -2.3504562,0.07226 -2.9303952,0.03293 z"
       id="path1" /></g></svg>
