<?xml version="1.0" encoding="UTF-8" standalone="no"?>
<!-- Created with Inkscape (http://www.inkscape.org/) -->

<svg
   width="180"
   height="180"
   viewBox="0 0 180 180"
   version="1.1"
   id="svg1"
   xml:space="preserve"
   sodipodi:docname="pixiv.svg"
   inkscape:version="1.4.2 (f4327f4, 2025-05-13)"
   xmlns:inkscape="http://www.inkscape.org/namespaces/inkscape"
   xmlns:sodipodi="http://sodipodi.sourceforge.net/DTD/sodipodi-0.dtd"
   xmlns="http://www.w3.org/2000/svg"
   xmlns:svg="http://www.w3.org/2000/svg"><sodipodi:namedview
     id="namedview1"
     pagecolor="#b5b5b5"
     bordercolor="#999999"
     borderopacity="1"
     inkscape:showpageshadow="false"
     inkscape:pageopacity="0"
     inkscape:pagecheckerboard="true"
     inkscape:deskcolor="#282828"
     inkscape:document-units="px"
     inkscape:zoom="7.0553544"
     inkscape:cx="41.457875"
     inkscape:cy="71.860316"
     inkscape:window-width="3840"
     inkscape:window-height="2054"
     inkscape:window-x="-11"
     inkscape:window-y="220"
     inkscape:window-maximized="1"
     inkscape:current-layer="layer1" /><defs
     id="defs1" /><g
     inkscape:label="Layer 1"
     inkscape:groupmode="layer"
     id="layer1"
     style="opacity:1;stroke-width:1;stroke-dasharray:none"
     transform="matrix(0.98895028,0,0,0.98895028,0.99447514,0.99447531)"><rect
       style="opacity:1;stroke-width:68.2362;stroke-dasharray:none;fill:#0096fa;fill-opacity:1;stroke:#0096fa;stroke-linecap:round;stroke-linejoin:round;stroke-opacity:1"
       id="rect25"
       width="113.77498"
       height="113.77498"
       x="33.112507"
       y="33.112507" /><path
       style="opacity:1;fill:#ffffff;fill-opacity:1"
       d="m 68.307155,148.81033 c 1.662853,-2.70114 -1.803425,-4.60248 -4.047105,-5.09266 -2.898677,0.14224 -2.33252,-2.35856 -2.28977,-4.46009 0,-5.49748 0,-10.99496 0,-16.49244 13.764261,4.80415 28.585154,7.58258 43.16898,5.82245 15.55942,-1.80523 31.2017,-8.89532 40.52163,-21.86241 5.63144,-7.856938 8.55107,-17.60238 7.92272,-27.264475 C 153.03917,64.144521 144.10794,49.60608 130.92767,41.863268 116.26697,32.862054 98.107667,31.21462 81.434575,34.249731 59.934155,38.197473 40.244728,49.759764 24.896648,65.131405 c -1.438233,1.650815 1.657035,3.6315 2.198298,5.381567 1.815393,2.866527 3.630786,5.733055 5.446179,8.599582 3.361008,-0.389278 2.579018,-4.656743 1.84951,-6.976655 0.27659,-2.192964 2.417869,-4.021694 3.723345,-5.847298 2.939184,-3.458133 6.170867,-6.795326 9.659139,-9.627869 0,28.811976 0,57.623948 0,86.435928 -2.024306,0.87055 -5.515567,2.0875 -4.758904,4.84036 0.406053,2.54612 3.157049,1.30372 4.968206,1.57974 6.642398,0 13.284797,0 19.927196,0 0.132513,-0.23548 0.265025,-0.47095 0.397538,-0.70643 z m 22.147873,-27.98309 c -9.70745,-0.49404 -19.478712,-2.17297 -28.393743,-6.16909 -0.03021,-21.657885 -0.06041,-43.315769 -0.09062,-64.973654 11.149682,-6.676637 24.391374,-10.13833 37.384731,-9.153545 13.153224,1.061839 26.040554,8.601787 31.895974,20.666699 3.71864,6.850488 5.12422,14.778558 4.7011,22.520299 -0.11799,9.582195 -4.6092,18.844641 -11.16004,25.716021 -8.30619,8.48924 -20.62721,11.76879 -32.235474,11.44748 -0.701583,0.0379 -1.40115,-0.0293 -2.101928,-0.0542 z"
       id="path25" /></g></svg>
