<?xml version="1.0" encoding="UTF-8" standalone="no"?>
<!-- Created with Inkscape (http://www.inkscape.org/) -->

<svg
   width="180"
   height="180"
   viewBox="0 0 180 180"
   version="1.1"
   id="svg1"
   xml:space="preserve"
   sodipodi:docname="youtube.svg"
   inkscape:version="1.4.2 (f4327f4, 2025-05-13)"
   xmlns:inkscape="http://www.inkscape.org/namespaces/inkscape"
   xmlns:sodipodi="http://sodipodi.sourceforge.net/DTD/sodipodi-0.dtd"
   xmlns="http://www.w3.org/2000/svg"
   xmlns:svg="http://www.w3.org/2000/svg"><sodipodi:namedview
     id="namedview1"
     pagecolor="#b5b5b5"
     bordercolor="#999999"
     borderopacity="1"
     inkscape:showpageshadow="2"
     inkscape:pageopacity="0"
     inkscape:pagecheckerboard="true"
     inkscape:deskcolor="#282828"
     inkscape:document-units="px"
     inkscape:zoom="8"
     inkscape:cx="50.4375"
     inkscape:cy="92.125"
     inkscape:window-width="3840"
     inkscape:window-height="2054"
     inkscape:window-x="-11"
     inkscape:window-y="220"
     inkscape:window-maximized="1"
     inkscape:current-layer="layer1" /><defs
     id="defs1"><clipPath
       clipPathUnits="userSpaceOnUse"
       id="clipPath2"><circle
         style="display:inline;opacity:1;fill:#000000;fill-opacity:1;stroke:#ffffff;stroke-width:0;stroke-linecap:square;stroke-dasharray:none"
         id="circle2"
         r="90"
         cy="90"
         cx="90" /></clipPath></defs><g
     inkscape:label="Layer 1"
     inkscape:groupmode="layer"
     id="layer1"
     style="opacity:1;stroke-width:1;stroke-dasharray:none"
     transform="matrix(0.98895028,0,0,0.98895028,0.99447514,0.99447531)"><path
       style="fill:#ff0000;fill-opacity:1;stroke-width:1.00884"
       d="M 70.900429,152.25265 C 43.830196,151.52159 27.834986,150.45635 19.669067,148.84076 12.800852,147.48192 6.3046309,142.03744 3.546699,135.32863 -1.7827191,122.36453 -2.6297929,73.792813 2.0543852,49.758465 4.0669181,39.432232 10.920041,32.722274 21.215395,30.997736 49.986739,26.178352 145.9397,26.572852 161.496,31.574484 c 6.51245,2.093872 11.86488,6.964849 14.3823,13.088601 4.72109,11.48429 6.24991,50.892034 2.96123,76.329965 -1.56504,12.10551 -2.72973,15.75141 -6.50942,20.37679 -6.04889,7.40231 -12.95509,8.9795 -46.0014,10.50548 -6.05332,0.27953 -48.380237,0.56767 -55.428281,0.37733 z"
       id="path1" /><path
       sodipodi:type="star"
       style="fill:#ffffff;fill-opacity:1;stroke:#ffffff;stroke-width:16.1788"
       id="path3"
       inkscape:flatsided="true"
       sodipodi:sides="3"
       sodipodi:cx="72.058197"
       sodipodi:cy="89.178421"
       sodipodi:r1="16.410589"
       sodipodi:r2="8.2052956"
       sodipodi:arg1="0"
       sodipodi:arg2="1.0471976"
       inkscape:rounded="0"
       inkscape:randomized="0"
       d="m 88.468786,89.178421 -24.615884,14.211989 0,-28.423976 z"
       inkscape:transform-center-x="-3.9618495"
       transform="matrix(0.97647081,0,0,0.97647081,17.147998,3.5839445)" /></g></svg>
